<svg width="400" height="401" viewBox="0 0 400 401" fill="none" xmlns="http://www.w3.org/2000/svg">
<g clip-path="url(#clip0_2037_1618)">
<path fill-rule="evenodd" clip-rule="evenodd" d="M180.267 292.4L145.283 388.661C158.443 393.397 172.037 396.429 185.749 397.774V346.5H218V397.819C231.86 396.499 245.602 393.452 258.9 388.666L223.916 292.405C216.44 271.838 187.743 271.838 180.267 292.405V292.4Z" fill="#01353C" style="fill:#01353C;fill:color(display-p3 0.0039 0.2078 0.2353);fill-opacity:1;"/>
<path fill-rule="evenodd" clip-rule="evenodd" d="M251.854 280.665L294.264 373.809C306.871 367.727 318.6 360.124 329.233 351.246L293.465 314.988L316.271 291.869L352.069 328.157C360.945 317.288 368.539 305.284 374.603 292.369L282.718 249.378C263.084 240.195 242.795 260.763 251.854 280.665Z" fill="#01353C" style="fill:#01353C;fill:color(display-p3 0.0039 0.2078 0.2353);fill-opacity:1;"/>
<path fill-rule="evenodd" clip-rule="evenodd" d="M294.293 221.056L389.253 256.519C393.926 243.179 396.916 229.399 398.243 215.499H347.662V182.807H398.287C396.985 168.757 393.98 154.827 389.258 141.347L294.298 176.81C274.008 184.388 274.008 213.478 294.298 221.056H294.293Z" fill="#01353C" style="fill:#01353C;fill:color(display-p3 0.0039 0.2078 0.2353);fill-opacity:1;"/>
<path fill-rule="evenodd" clip-rule="evenodd" d="M282.718 148.488L374.603 105.497C368.603 92.7172 361.103 80.8278 352.345 70.0489L316.577 106.307L293.771 83.1887L329.569 46.9003C318.846 37.902 307.004 30.2042 294.264 24.0569L251.854 117.201C242.795 137.104 263.084 157.671 282.718 148.488Z" fill="#01353C" style="fill:#01353C;fill:color(display-p3 0.0039 0.2078 0.2353);fill-opacity:1;"/>
<path fill-rule="evenodd" clip-rule="evenodd" d="M223.91 105.461L258.894 9.20074C245.739 4.46399 232.146 1.43287 218.428 0.087378V51.3613H186.178V0.0473633C172.318 1.36785 158.576 4.41397 145.278 9.20074L180.262 105.461C187.737 126.029 216.435 126.029 223.91 105.461Z" fill="#01353C" style="fill:#01353C;fill:color(display-p3 0.0039 0.2078 0.2353);fill-opacity:1;"/>
<path fill-rule="evenodd" clip-rule="evenodd" d="M152.322 117.201L109.912 24.0569C97.3052 30.1391 85.5765 37.7419 74.9432 46.6202L110.712 82.8786L87.9054 105.997L52.1074 69.7087C43.2307 80.5777 35.6369 92.5822 29.5727 105.497L121.458 148.488C141.092 157.671 161.381 137.104 152.322 117.201Z" fill="#01353C" style="fill:#01353C;fill:color(display-p3 0.0039 0.2078 0.2353);fill-opacity:1;"/>
<path fill-rule="evenodd" clip-rule="evenodd" d="M109.886 176.815L14.9263 141.347C10.2535 154.687 7.26336 168.467 5.93605 182.372H56.5171V215.064H5.89658C7.19922 229.114 10.2042 243.044 14.9263 256.524L109.886 221.061C130.176 213.483 130.176 184.393 109.886 176.815Z" fill="#01353C" style="fill:#01353C;fill:color(display-p3 0.0039 0.2078 0.2353);fill-opacity:1;"/>
<path fill-rule="evenodd" clip-rule="evenodd" d="M121.458 249.378L29.5727 292.369C35.5727 305.149 43.0728 317.038 51.8311 327.817L87.5995 291.559L110.406 314.678L74.6076 350.966C85.3298 359.964 97.172 367.662 109.912 373.809L152.322 280.665C161.381 260.763 141.092 240.195 121.458 249.378Z" fill="#01353C" style="fill:#01353C;fill:color(display-p3 0.0039 0.2078 0.2353);fill-opacity:1;"/>
</g>
<defs>
<clipPath id="clip0_2037_1618">
<rect width="400" height="400.002" fill="white" style="fill:white;fill-opacity:1;" transform="translate(0 0.0473633)"/>
</clipPath>
</defs>
</svg>
